<svg xmlns="http://www.w3.org/2000/svg" viewBox="0 0 353.33 205.04"><title>2Ресурс 3</title><g id="Слой_2" data-name="Слой 2"><g id="Слой_7" data-name="Слой 7"><path d="M126.67,28.69s53.2-56.31,100,1.15c0,0,65.77-21.63,76.72,39.46,0,0,45.82,11.21,46,43.45.14,29.43-18.52,43.75-56.76,36.61,0,0-13.42,75.35-105.17,28.76,0,0-69.55,62.46-111.35-18.84,0,0-57.52,7.46-70.12-35.27S46.84,66.26,46.84,66.26,52.27,7.07,126.67,28.69Z" style="fill:#fff;stroke:#b1e3ff;stroke-miterlimit:10;stroke-width:8px"/><path d="M246.21,178c-13.76,1.78-31.27-2.66-52-13.2L185,160.09,177.36,167c-.14.13-18.24,16-39.12,18.7-20.05,2.6-36-8.28-48.86-33.24l-4.82-9.37-10.45,1.36a85.08,85.08,0,0,1-25.88-1.55c-15.23-3.48-24.37-11-27.92-23.1-2.12-7.18-1.7-13.09,1.31-18.58C28,89.46,45,82.42,50.94,80.69l10.15-2.84.68-10.16c.35-3,3.79-25.15,28.36-28.33,9-1.16,19.83.09,32.35,3.73l8.8,2.56L137.57,39c.12-.13,16.56-17,36.71-19.66,14.89-1.93,28.22,4.61,40.73,20l6.52,8,9.8-3.23a72.41,72.41,0,0,1,11.36-2.35c7.6-1,18.59-1.29,27.74,2.88C280.15,49.05,286.09,58,288.59,72l1.72,9.61,9.48,2.32c.3.07,34.44,9.2,34.54,28.94.08,18.17-8.47,21.78-17.72,23-5.86.76-13,.36-21.29-1.19l-15.09-2.82-2.43,14.89c-.36,1.82-6.06,27.95-31.59,31.27Z" style="fill:#fff"/><polyline points="193.93 164.62 185.01 160.09 177.57 166.77" style="fill:none;stroke:#6abae7;stroke-miterlimit:10;stroke-width:4px"/><path d="M173.55,170c-6.4,4.77-20.12,13.7-35.31,15.67-19.55,2.53-35.24-7.75-47.91-31.43" style="fill:none;stroke:#6abae7;stroke-miterlimit:10;stroke-width:4px;stroke-dasharray:20.605453491210938,5.151363372802734"/><polyline points="89.13 151.94 84.56 143.05 74.64 144.34" style="fill:none;stroke:#6abae7;stroke-miterlimit:10;stroke-width:4px"/><path d="M70,144.7a84.53,84.53,0,0,1-21.78-1.84c-15.23-3.48-24.37-11-27.92-23.1-2.12-7.18-1.7-13.09,1.31-18.58,5.89-10.74,20.6-17.56,27.62-20" style="fill:none;stroke:#6abae7;stroke-miterlimit:10;stroke-width:4px;stroke-dasharray:18.613502502441406,4.653375625610352"/><polyline points="51.46 80.55 61.09 77.85 61.76 67.87" style="fill:none;stroke:#6abae7;stroke-miterlimit:10;stroke-width:4px"/><path d="M62.67,63.25c2-7.49,8.37-21.42,27.46-23.89,8.2-1.07,18-.1,29.26,2.87" style="fill:none;stroke:#6abae7;stroke-miterlimit:10;stroke-width:4px;stroke-dasharray:18.858442306518555,4.714610576629639"/><path d="M121.67,42.86l.81.23,8.8,2.56L137.57,39l.59-.59" style="fill:none;stroke:#6abae7;stroke-miterlimit:10;stroke-width:4px"/><path d="M142.33,34.69c6.32-5.23,18.28-13.59,31.95-15.36,14.26-1.85,27.09,4.07,39.14,18.08" style="fill:none;stroke:#6abae7;stroke-miterlimit:10;stroke-width:4px;stroke-dasharray:22.339359283447266,5.584839820861816"/><polyline points="215.22 39.56 221.53 47.31 231.03 44.19" style="fill:none;stroke:#6abae7;stroke-miterlimit:10;stroke-width:4px"/><path d="M235.51,43c1.9-.43,4.36-.9,7.18-1.27,7.6-1,18.59-1.29,27.74,2.88s14.92,12.29,17.66,24.82" style="fill:none;stroke:#6abae7;stroke-miterlimit:10;stroke-width:4px;stroke-dasharray:18.53643226623535,4.634108066558838"/><path d="M288.55,71.71c0,.08,0,.16,0,.24l1.72,9.61,9.48,2.32.23.06" style="fill:none;stroke:#6abae7;stroke-miterlimit:10;stroke-width:4px"/><path d="M304.88,85.5c9.58,3.42,29.38,12.29,29.45,27.32.08,18.17-8.47,21.78-17.72,23-5.86.76-13,.36-21.29-1.19l-2.75-.51" style="fill:none;stroke:#6abae7;stroke-miterlimit:10;stroke-width:4px;stroke-dasharray:20.416229248046875,5.104057312011719"/><polyline points="290.06 133.63 280.23 131.79 278.62 141.66" style="fill:none;stroke:#6abae7;stroke-miterlimit:10;stroke-width:4px"/><path d="M277.8,146.7c-.4,2-6.14,27.94-31.59,31.25h0c-13.31,1.72-30.12-2.37-50-12.18" style="fill:none;stroke:#6abae7;stroke-miterlimit:10;stroke-width:4px;stroke-dasharray:20.421939849853516,5.105484962463379"/></g></g></svg>