<svg xmlns="http://www.w3.org/2000/svg" viewBox="0 0 270.07 429.14"><title>2Ресурс 4</title><g id="Слой_2" data-name="Слой 2"><g id="Слой_13" data-name="Слой 13"><polyline points="1.76 399.87 188.56 428.91 267.89 398.88 62.69 375.36 0 395.08" style="fill:#d0b39f"/><polygon points="0 395.08 1.77 399.82 189.22 429.14 186.61 423.74 0 395.08" style="fill:#ac8469"/><polygon points="186.61 423.74 189.22 429.14 270.07 403.38 267.89 398.88 186.61 423.74" style="fill:#c69c6d"/></g><g id="Слой_12" data-name="Слой 12"><path d="M216.76,250.15c-6.21,4.74,10.43,13.63,7.94,72.4-1.8,42.5-35.48,46.67-53.57,53.69a217.55,217.55,0,0,0,1.42-35.71c-.26-3.69-.61-7.32-1.08-10.85a61.38,61.38,0,0,0,22.31-2.38c6.4-1.91,10.71-4.51,13.25-7.21a3.24,3.24,0,0,0,.27.71,3.5,3.5,0,1,0,6.21-3.25,4.63,4.63,0,0,0-.31-.46,3.77,3.77,0,0,0,.52-.21,3.49,3.49,0,0,0-2.1-6.56,3.49,3.49,0,1,0-6.68-1.27c-4.75-1.2-12.51-.62-20.82,1.87a52.92,52.92,0,0,0-14.76,6.76c-4.38-19.38-13-33.77-28.1-35.43-16.16-1.79-29.76,11.93-37.87,32.16A73.79,73.79,0,0,0,89.57,310c-6.63-1.39-11.7-1.36-15.21-.38a3.44,3.44,0,0,0,.25-1.21,3.5,3.5,0,1,0-7-.11,3.31,3.31,0,0,0,0,.55,3.55,3.55,0,0,0-.56-.06,3.49,3.49,0,0,0-1.28,6.76,3.49,3.49,0,1,0,4.81,5c2.76,3.17,8.17,6.18,16.14,7.85a61,61,0,0,0,11.83,1.25c-.21.87-.41,1.76-.59,2.64-5.17,24.4-4.3,38.2-.05,46.16a71,71,0,0,0-10.71,9.41c-4.32,4.68-6.6,8.73-7.42,12a3.2,3.2,0,0,0-.54-.41,3.5,3.5,0,1,0-3.68,5.95,3.33,3.33,0,0,0,.5.25,3.68,3.68,0,0,0-.34.44,3.49,3.49,0,0,0,5.15,4.57,3.49,3.49,0,1,0,6.73-1.63c5-.65,11.82-4,17.68-10.36a43.4,43.4,0,0,0,7-10.18c5.32,1.23,11.27,1.42,17,2,1,.11,2,.24,3.06.37-.27,1.09-.53,2.21-.76,3.36-1.52,7.38-1.93,14.26-1.14,19a3.49,3.49,0,1,0-1.73,6.7,3.36,3.36,0,0,0-.23,1.19,3.49,3.49,0,0,0,6.76,1.26,3.49,3.49,0,1,0,5.51-4.28,26.12,26.12,0,0,0,13.3-17.58,28.1,28.1,0,0,0,.32-8.95l.13,0,0,0c1.19,1.14,6.77.12,8.22-.67.13-.07.25-.16.37-.24,17.08,5,95.43-17.15,97.65-69.68C263.29,262.31,226.85,242.44,216.76,250.15Z" style="fill:#ffa019;stroke:#000;stroke-linecap:round;stroke-miterlimit:10;stroke-width:2px"/><ellipse cx="71.3" cy="308.68" rx="2.68" ry="3" transform="translate(-36.16 10.66) rotate(-6.82)" style="fill:#fff"/><ellipse cx="67.6" cy="312.54" rx="2.85" ry="3" transform="translate(-251.51 291.94) rotate(-74.1)" style="fill:#fff"/><ellipse cx="67.87" cy="318.08" rx="3" ry="2.54" transform="translate(-203.15 138.28) rotate(-44.39)" style="fill:#fff"/><ellipse cx="210.11" cy="319.27" rx="2.68" ry="3" transform="translate(-126.05 137.4) rotate(-28.24)" style="fill:#fff"/><ellipse cx="212.27" cy="314.2" rx="3" ry="2.85" transform="translate(-29.22 21.86) rotate(-5.52)" style="fill:#fff"/><ellipse cx="208.27" cy="309.27" rx="3" ry="2.54" transform="translate(-159.19 372.52) rotate(-65.81)" style="fill:#fff"/><path d="M216.35,407.14C200.44,291.54,223.77,2,223.77,2" style="fill:none;stroke:#797b76;stroke-linecap:round;stroke-linejoin:round;stroke-width:4px"/><path d="M47.53,388.8C92.11,265.05,109.77,2,109.77,2" style="fill:none;stroke:#797b76;stroke-linecap:round;stroke-linejoin:round;stroke-width:4px"/><path d="M152,350.5c3.59,45.43-14.37,39.48-28,38.37S94.88,391,102.5,346.46c3.77-22,14.37-39.48,28-38.37S150.21,328.27,152,350.5Z" style="fill:#fff"/><path d="M195.49,190.16c-1.29-11.64-15.51-3.88-15.51-3.88l-21.59,10.79a67.22,67.22,0,0,0-27.3-5.62A69.43,69.43,0,0,0,102,197.61L82,187.57s-14.22-7.76-15.51,3.88c-1,9.42,1.41,29.34,2.88,39.8-6.6,19.38-14,64.32,57.89,66.24,76.9,2.05,70.87-45.49,65.08-65.27C193.68,222.66,196.62,200.31,195.49,190.16Z" style="fill:#ffa019;stroke:#000;stroke-miterlimit:10;stroke-width:2px"/><path d="M65.42,250.27c-1.23,20.76,8.5,45.79,61.79,47.22,58.37,1.55,69-25.46,68.15-47.21h-.26s-43.83,14.88-53-2.59c-12.93-24.57-23.27,0-23.27,0s-6.47,15.52-53,2.59" style="fill:#fff"/><line x1="54.28" y1="257.98" x2="76.26" y2="259.28" style="fill:none;stroke:#000;stroke-linecap:round;stroke-miterlimit:10;stroke-width:2px"/><line x1="53.77" y1="268.8" x2="74.71" y2="266.69" style="fill:none;stroke:#000;stroke-linecap:round;stroke-miterlimit:10;stroke-width:2px"/><line x1="59.07" y1="281.32" x2="75.88" y2="273.56" style="fill:none;stroke:#000;stroke-linecap:round;stroke-miterlimit:10;stroke-width:2px"/><line x1="206.35" y1="256.69" x2="184.37" y2="257.98" style="fill:none;stroke:#000;stroke-linecap:round;stroke-miterlimit:10;stroke-width:2px"/><line x1="206.86" y1="267.51" x2="185.92" y2="265.39" style="fill:none;stroke:#000;stroke-linecap:round;stroke-miterlimit:10;stroke-width:2px"/><line x1="201.56" y1="280.03" x2="184.75" y2="272.27" style="fill:none;stroke:#000;stroke-linecap:round;stroke-miterlimit:10;stroke-width:2px"/><path d="M130.44,256.75s12.93-9.05,0-9.05C116.22,247.7,130.44,256.75,130.44,256.75Z"/><path d="M186.11,218.58c1.23-5.79,2.27-11,2.27-17.43,0-11.64-7.76-6.47-7.76-6.47s-10.49,4.5-14.93,8.93Z" style="fill:#ffb3e8"/><path d="M186.11,218.58a24.89,24.89,0,0,1-1.61,5.84s-19.39-11.63-20.69-16.81c-.31-1.23.49-2.61,1.88-4C165.69,203.61,183.46,210.2,186.11,218.58Z" style="fill:#e897a7"/><path d="M75.5,218.58c-1.23-5.79-2.27-11-2.27-17.43,0-11.64,7.76-6.47,7.76-6.47s10.5,4.5,14.93,8.93Z" style="fill:#ffb3e8"/><path d="M75.5,218.58a24.89,24.89,0,0,0,1.61,5.84s19.4-11.63,20.69-16.81c.31-1.23-.49-2.61-1.88-4C95.92,203.61,78.15,210.2,75.5,218.58Z" style="fill:#e897a7"/><path d="M195.49,190.16c-1.29-11.64-15.51-3.88-15.51-3.88l-21.59,10.79a67.22,67.22,0,0,0-27.3-5.62A69.43,69.43,0,0,0,102,197.61L82,187.57s-14.22-7.76-15.51,3.88c-1,9.42,1.41,29.34,2.88,39.8-6.6,19.38-14,64.32,57.89,66.24,76.9,2.05,70.87-45.49,65.08-65.27C193.68,222.66,196.62,200.31,195.49,190.16Z" style="fill:none;stroke:#000;stroke-miterlimit:10;stroke-width:2px"/><path d="M130.25,254.56s-1.22,22,17.14,13.46" style="fill:none;stroke:#000;stroke-linecap:round;stroke-miterlimit:10;stroke-width:2px"/><path d="M130.24,254.56s1.22,22-17.14,13.46" style="fill:none;stroke:#000;stroke-linecap:round;stroke-miterlimit:10;stroke-width:2px"/><path d="M149.77,244s8.18-11.45,18,0" style="fill:none;stroke:#000;stroke-linecap:round;stroke-miterlimit:10;stroke-width:2px"/><path d="M91.77,244s8.18-11.45,18,0" style="fill:none;stroke:#000;stroke-linecap:round;stroke-miterlimit:10;stroke-width:2px"/><ellipse cx="77.85" cy="402.54" rx="2.68" ry="3" transform="translate(-316 288.61) rotate(-62.92)" style="fill:#fff"/><ellipse cx="78.99" cy="407.77" rx="3" ry="2.85" transform="translate(-244.53 147.3) rotate(-40.2)" style="fill:#fff"/><ellipse cx="84.3" cy="409.8" rx="2.54" ry="3" transform="translate(-73.22 22.2) rotate(-10.49)" style="fill:#fff"/><ellipse cx="128.85" cy="416.54" rx="2.68" ry="3" transform="translate(-306.98 429.16) rotate(-74.47)" style="fill:#fff"/><ellipse cx="131.99" cy="420.77" rx="3" ry="2.85" transform="translate(-240.41 184.58) rotate(-40.2)" style="fill:#fff"/><ellipse cx="138.08" cy="419.95" rx="2.67" ry="3" transform="translate(-160.17 93.65) rotate(-24.23)" style="fill:#fff"/></g></g></svg>